<?xml version="1.0" encoding="UTF-8" standalone="no"?>
<svg
   xmlns:dc="http://purl.org/dc/elements/1.1/"
   xmlns:cc="http://creativecommons.org/ns#"
   xmlns:rdf="http://www.w3.org/1999/02/22-rdf-syntax-ns#"
   xmlns:svg="http://www.w3.org/2000/svg"
   xmlns="http://www.w3.org/2000/svg"
   xmlns:sodipodi="http://sodipodi.sourceforge.net/DTD/sodipodi-0.dtd"
   xmlns:inkscape="http://www.inkscape.org/namespaces/inkscape"
   id="Layer_1"
   enable-background="new 0 0 256 256"
   height="512"
   viewBox="0 0 256 256"
   width="512"
   version="1.1"
   sodipodi:docname="diizinkan.svg"
   inkscape:version="0.92.4 (5da689c313, 2019-01-14)"
   inkscape:export-filename="E:\2019\Sitaru DPTR\icon web\diizinkan.png"
   inkscape:export-xdpi="96"
   inkscape:export-ydpi="96">
  <metadata
     id="metadata121">
    <rdf:RDF>
      <cc:Work
         rdf:about="">
        <dc:format>image/svg+xml</dc:format>
        <dc:type
           rdf:resource="http://purl.org/dc/dcmitype/StillImage" />
        <dc:title></dc:title>
      </cc:Work>
    </rdf:RDF>
  </metadata>
  <defs
     id="defs119" />
  <sodipodi:namedview
     pagecolor="#ffffff"
     bordercolor="#666666"
     borderopacity="1"
     objecttolerance="10"
     gridtolerance="10"
     guidetolerance="10"
     inkscape:pageopacity="0"
     inkscape:pageshadow="2"
     inkscape:window-width="1366"
     inkscape:window-height="705"
     id="namedview117"
     showgrid="false"
     inkscape:zoom="0.921875"
     inkscape:cx="264.78086"
     inkscape:cy="252.32773"
     inkscape:window-x="-8"
     inkscape:window-y="-8"
     inkscape:window-maximized="1"
     inkscape:current-layer="Layer_1" />
  <path
     d="m150.734 108.521c0-.007 0-.016 0-.027v-4.81c0-17.384-14.766-31.478-32.974-31.478-18.215 0-32.98 14.093-32.98 31.478v4.717c-15.619 1.325-27.921 14.279-27.921 30.237 0 16.832 13.654 30.494 30.492 30.494h26.081c1.282 0 2.495-.225 3.737-.385 1.244.16 2.456.385 3.737.385h26.08c16.841 0 30.485-13.662 30.485-30.494.002-15.558-11.693-28.251-26.737-30.117z"
     fill="#1d966a"
     id="path2" />
  <path
     d="m150.734 108.521c0-.007 0-.016 0-.027v-4.81c0-17.384-14.766-31.478-32.974-31.478-18.215 0-32.98 14.093-32.98 31.478v4.717c-15.619 1.325-27.921 14.279-27.921 30.237 0 16.832 13.654 30.494 30.492 30.494h26.081c1.282 0 2.495-.225 3.737-.385 1.244.16 2.456.385 3.737.385h26.08c16.841 0 30.485-13.662 30.485-30.494.002-15.558-11.693-28.251-26.737-30.117z"
     fill="#1d966a"
     id="path4" />
  <path
     d="m150.734 108.521c0-.007 0-.016 0-.027v-4.81c0-17.384-14.766-31.478-32.974-31.478-3.209 0-6.311.462-9.239 1.279 13.701 3.814 23.725 15.88 23.725 30.198v4.81.027c15.046 1.866 26.748 14.559 26.748 30.117 0 16.832-13.653 30.494-30.494 30.494h18.487c16.841 0 30.485-13.662 30.485-30.494.001-15.557-11.694-28.25-26.738-30.116z"
     fill="#7fd57a"
     id="path6" />
  <path
     d="m94.945 169.132h7.476c-1.282 0-2.494-.225-3.738-.385-1.245.16-2.455.385-3.738.385z"
     fill="#7fd57a"
     id="path8" />
  <path
     d="m146.987 170.921h-26.08c-1.113 0-2.141-.145-3.135-.286-.2-.028-.401-.057-.603-.084-.199.027-.398.055-.598.083-.995.141-2.024.286-3.14.286h-26.079c-17.8 0-32.281-14.482-32.281-32.283 0-16.275 11.891-29.688 27.921-31.841v-3.113c0-18.343 15.598-33.267 34.77-33.267 5.152 0 10.116 1.057 14.753 3.142.901.405 1.304 1.464.898 2.365s-1.465 1.302-2.365.898c-4.173-1.876-8.643-2.827-13.286-2.827-17.199 0-31.191 13.318-31.191 29.688v4.717c0 .929-.712 1.704-1.638 1.783-14.984 1.271-26.283 13.504-26.283 28.455 0 15.828 12.876 28.705 28.703 28.705h26.081c.863 0 1.726-.122 2.639-.251.289-.041.579-.082.87-.119.152-.02.306-.02.456 0 .293.038.585.079.876.12.911.129 1.772.25 2.634.25h26.08c15.823 0 28.696-12.877 28.696-28.705 0-.988.801-1.789 1.789-1.789s1.789.801 1.789 1.789c-.001 17.802-14.48 32.284-32.276 32.284z"
     fill="#24202b"
     id="path10" />
  <path
     d="m147.113 135.958c1.196-1.193 1.196-3.117 0-4.305-1.183-1.186-3.101-1.186-4.29.007l-16.186 16.195v-24.433l9.705-9.706c1.431-1.426 1.431-3.734 0-5.161-1.422-1.426-3.729-1.426-5.159 0l-12.769 12.769h-.202l-12.774-12.769c-1.423-1.426-3.731-1.426-5.161 0-1.423 1.426-1.423 3.734 0 5.161l9.938 9.931v23.5l-15.48-15.488c-1.188-1.193-3.115-1.193-4.297-.007-1.188 1.189-1.188 3.112 0 4.305l19.777 19.781v71.723h-12.318c-1.927 0-3.488 1.559-3.488 3.498 0 1.927 1.562 3.489 3.488 3.489h40.45c1.934 0 3.496-1.562 3.496-3.489 0-1.939-1.562-3.498-3.496-3.498h-11.711v-71.023z"
     fill="#ff8b38"
     id="path12" />
  <path
     d="m126.084 113.717-9.706 9.706v24.433l10.259-10.262v-14.17l9.705-9.706c1.431-1.426 1.431-3.734 0-5.161-1.422-1.426-3.729-1.426-5.159 0l-4.975 4.97c-.047.058-.069.135-.124.19z"
     fill="#f9a369"
     id="path14" />
  <path
     d="m147.113 131.652c-1.183-1.186-3.101-1.186-4.29.007l-16.186 16.195v-1.675l-10.259 10.258v71.023h10.259v-71.023l20.477-20.481c1.196-1.192 1.196-3.115-.001-4.304z"
     fill="#f9a369"
     id="path16" />
  <path
     d="m138.348 227.461h-10.26c1.936 0 3.497 1.559 3.497 3.498 0 1.927-1.561 3.489-3.497 3.489h10.26c1.934 0 3.496-1.562 3.496-3.489 0-1.939-1.562-3.498-3.496-3.498z"
     fill="#f9a369"
     id="path18" />
  <path
     d="m138.348 236.237h-40.45c-2.91 0-5.277-2.368-5.277-5.278 0-2.915 2.367-5.287 5.277-5.287h10.528v-69.193l-19.253-19.256c-1.882-1.89-1.881-4.955 0-6.835.906-.91 2.117-1.412 3.407-1.412 1.293 0 2.508.505 3.422 1.422l12.424 12.43v-18.438l-9.414-9.406c-2.116-2.122-2.116-5.57-.002-7.69 2.128-2.122 5.578-2.12 7.694 0l11.608 11.604 11.605-11.605c1.03-1.028 2.396-1.593 3.848-1.593s2.817.566 3.843 1.595c1.027 1.024 1.596 2.391 1.596 3.844s-.568 2.819-1.6 3.847l-9.179 9.18v19.371l13.132-13.139c.913-.915 2.126-1.42 3.416-1.42 1.287 0 2.497.502 3.406 1.414.912.906 1.418 2.119 1.42 3.41.001 1.292-.504 2.508-1.421 3.424l-19.953 19.957v68.493h9.922c2.914 0 5.285 2.372 5.285 5.287.001 2.906-2.37 5.274-5.284 5.274zm-40.451-6.987c-.937 0-1.699.767-1.699 1.708 0 .938.763 1.7 1.699 1.7h40.45c.941 0 1.707-.762 1.707-1.7 0-.942-.766-1.708-1.707-1.708h-11.711c-.988 0-1.789-.801-1.789-1.789v-71.023c0-.475.188-.929.523-1.265l20.477-20.481c.001-.001.002-.001.002-.002.24-.239.372-.555.372-.889-.001-.332-.132-.644-.369-.88-.481-.482-1.289-.472-1.763.001l-16.188 16.197c-.514.512-1.283.665-1.95.388-.668-.277-1.104-.929-1.104-1.653v-24.433c0-.475.188-.93.524-1.265l9.705-9.706c.354-.354.549-.82.549-1.315 0-.496-.194-.962-.547-1.313-.709-.71-1.928-.704-2.633 0l-12.768 12.767c-.335.335-.79.524-1.265.524h-.202c-.475 0-.93-.188-1.265-.524l-12.774-12.769c-.727-.726-1.906-.724-2.633.001-.722.723-.722 1.904.003 2.63l9.937 9.929c.336.335.524.791.524 1.266v23.5c0 .724-.436 1.376-1.104 1.653-.671.277-1.438.124-1.95-.388l-15.48-15.488c-.239-.24-.554-.371-.889-.371-.332 0-.643.128-.875.362-.491.491-.49 1.288 0 1.78l19.774 19.778c.336.336.524.791.524 1.265v71.723c0 .988-.801 1.789-1.789 1.789h-12.316z"
     fill="#24202b"
     id="path20" />
  <path
     d="m226.649 236.237h-211.171c-.988 0-1.789-.801-1.789-1.789s.801-1.789 1.789-1.789h211.172c.988 0 1.789.801 1.789 1.789s-.801 1.789-1.79 1.789z"
     fill="#24202b"
     id="path30" />
  <path
     d="m152.592 172.523v57.063c0 2.685 2.176 4.861 4.856 4.861h75.13c2.682 0 4.85-2.176 4.85-4.861v-57.063z"
     fill="#eee"
     id="path52" />
  <path
     d="m152.592 172.523v57.063c0 2.685 2.176 4.861 4.856 4.861h8.689v-61.924z"
     fill="#c2cbe8"
     id="path54" />
  <path
     d="m143.374 172.523c-2.672 0-3.061-1.251-.871-2.777l48.524-33.859c2.191-1.527 5.773-1.527 7.974 0l48.53 33.859c2.184 1.527 1.795 2.777-.878 2.777z"
     fill="#7fd57a"
     id="path56" />
  <path
     d="m158.271 169.746 44.629-31.135-3.899-2.724c-2.201-1.527-5.782-1.527-7.974 0l-48.524 33.859c-2.19 1.527-1.801 2.777.871 2.777h15.768c-2.672 0-3.069-1.25-.871-2.777z"
     fill="#1d966a"
     id="path58" />
  <path
     d="m228.382 234.425v-22.898c0-7.045-5.704-12.748-12.743-12.748-7.033 0-12.738 5.703-12.738 12.748v22.898z"
     fill="#ff8b38"
     id="path60" />
  <path
     d="m230.171 236.214h-29.06v-24.687c0-8.016 6.517-14.537 14.527-14.537 8.013 0 14.532 6.521 14.532 14.537v24.687zm-25.482-3.578h21.903v-21.108c0-6.043-4.914-10.959-10.954-10.959-6.037 0-10.949 4.916-10.949 10.959z"
     fill="#24202b"
     id="path62" />
  <path
     d="m232.578 236.237h-75.13c-3.664 0-6.646-2.983-6.646-6.65v-57.063c0-.988.801-1.789 1.789-1.789h84.836c.988 0 1.789.801 1.789 1.789v57.063c.001 3.666-2.978 6.65-6.638 6.65zm-78.197-61.925v55.274c0 1.694 1.376 3.072 3.067 3.072h75.13c1.688 0 3.061-1.378 3.061-3.072v-55.274z"
     fill="#24202b"
     id="path64" />
  <path
     d="m246.653 174.312h-103.279c-2.74 0-3.669-1.125-3.966-2.068-.296-.944-.178-2.398 2.071-3.966l48.524-33.858c2.804-1.954 7.203-1.956 10.017-.002l48.534 33.861c2.245 1.57 2.362 3.023 2.065 3.966s-1.225 2.067-3.966 2.067zm-102.44-3.578h101.608l-47.844-33.38c-1.581-1.097-4.353-1.098-5.928 0z"
     fill="#24202b"
     id="path66" />
  <path
     d="m222.579 221.651c-.988 0-1.789-.801-1.789-1.789v-3.256c0-.988.801-1.789 1.789-1.789s1.789.801 1.789 1.789v3.256c0 .988-.801 1.789-1.789 1.789z"
     fill="#24202b"
     id="path68" />
  <path
     d="m194.058 211.749c0 2.682-2.175 4.857-4.855 4.857h-23.446c-2.681 0-4.857-2.176-4.857-4.857v-23.445c0-2.681 2.177-4.857 4.857-4.857h23.446c2.681 0 4.855 2.176 4.855 4.857z"
     fill="#14a2ff"
     id="path70" />
  <path
     d="m194.058 188.303c0-2.681-2.175-4.857-4.855-4.857h-7.361l-20.756 29.565c.559 2.067 2.425 3.594 4.671 3.594h13.52l14.781-21.697z"
     fill="#14a2ff"
     id="path72" />
  <path
     d="m165.756 183.446c-2.681 0-4.857 2.176-4.857 4.857v15.515l14.438-20.372z"
     fill="#14a2ff"
     id="path74" />
  <path
     d="m179.276 216.606h8.177l6.605-9.582v-12.115z"
     fill="#b8dff4"
     id="path76" />
  <path
     d="m175.336 183.446-14.438 20.372v7.931c0 .443.077.859.187 1.263l20.756-29.565h-6.505z"
     fill="#b8dff4"
     id="path78" />
  <path
     d="m189.202 218.395h-23.446c-3.665 0-6.646-2.981-6.646-6.646v-23.445c0-3.665 2.981-6.646 6.646-6.646h23.446c3.664 0 6.645 2.981 6.645 6.646v23.445c0 3.665-2.981 6.646-6.645 6.646zm-23.446-33.16c-1.692 0-3.068 1.376-3.068 3.068v23.445c0 1.692 1.376 3.068 3.068 3.068h23.446c1.69 0 3.066-1.376 3.066-3.068v-23.445c0-1.692-1.376-3.068-3.066-3.068z"
     fill="#24202b"
     id="path80" />
  <path
     d="m194.058 201.814h-33.159c-.988 0-1.789-.801-1.789-1.789s.801-1.789 1.789-1.789h33.159c.988 0 1.789.801 1.789 1.789s-.801 1.789-1.789 1.789z"
     fill="#24202b"
     id="path82" />
  <path
     d="m177.473 218.395c-.988 0-1.789-.801-1.789-1.789v-33.16c0-.988.801-1.789 1.789-1.789s1.789.801 1.789 1.789v33.16c0 .988-.801 1.789-1.789 1.789z"
     fill="#24202b"
     id="path84" />
  <path
     d="m33.965 234.448v-69.493c0-5.106-4.134-9.243-9.239-9.243s-9.248 4.137-9.248 9.243v69.493z"
     fill="#fa759e"
     id="path86" />
  <path
     d="m27.521 156.189c-.885-.284-1.816-.478-2.796-.478-5.105 0-9.248 4.137-9.248 9.243v69.493h5.61v-69.493c.001-4.121 2.713-7.572 6.434-8.765z"
     fill="#dd5e8c"
     id="path88" />
  <path
     d="m67.257 234.448v-69.493c0-5.106-4.135-9.243-9.24-9.243s-9.247 4.137-9.247 9.243v69.493z"
     fill="#fa759e"
     id="path90" />
  <path
     d="m61.04 156.259c-.947-.331-1.96-.547-3.023-.547-5.105 0-9.247 4.137-9.247 9.243v69.493h6.054v-69.493c-.001-4.04 2.61-7.437 6.216-8.696z"
     fill="#dd5e8c"
     id="path92" />
  <path
     d="m100.547 234.448v-69.493c0-5.106-4.133-9.243-9.238-9.243-5.107 0-9.248 4.137-9.248 9.243v69.493z"
     fill="#fa759e"
     id="path94" />
  <path
     d="m94.999 156.488c-1.134-.493-2.379-.776-3.69-.776-5.107 0-9.248 4.137-9.248 9.243v69.493h7.382v-69.493c-.001-3.792 2.284-7.04 5.556-8.467z"
     fill="#dd5e8c"
     id="path96" />
  <path
     d="m33.965 236.237h-18.487c-.988 0-1.789-.801-1.789-1.789v-69.493c0-6.083 4.951-11.032 11.037-11.032 6.081 0 11.028 4.949 11.028 11.032v69.493c0 .988-.801 1.789-1.789 1.789zm-16.698-3.578h14.909v-67.704c0-4.11-3.342-7.454-7.45-7.454-4.113 0-7.459 3.344-7.459 7.454z"
     fill="#24202b"
     id="path98" />
  <path
     d="m67.257 236.237h-18.487c-.988 0-1.789-.801-1.789-1.789v-69.493c0-6.083 4.951-11.032 11.036-11.032 6.081 0 11.029 4.949 11.029 11.032v69.493c0 .988-.801 1.789-1.789 1.789zm-16.698-3.578h14.909v-67.704c0-4.11-3.343-7.454-7.451-7.454-4.112 0-7.458 3.344-7.458 7.454z"
     fill="#24202b"
     id="path100" />
  <path
     d="m100.547 236.237h-18.486c-.988 0-1.789-.801-1.789-1.789v-69.493c0-6.083 4.951-11.032 11.037-11.032 6.08 0 11.027 4.949 11.027 11.032v69.493c0 .988-.801 1.789-1.789 1.789zm-16.697-3.578h14.908v-67.704c0-4.11-3.342-7.454-7.449-7.454-4.113 0-7.459 3.344-7.459 7.454z"
     fill="#24202b"
     id="path102" />
  <path
     d="m106.089 180.804c0 3.874-3.141 7.009-7.009 7.009h-85.272c-3.879 0-7.012-3.136-7.012-7.009 0-3.87 3.133-7.01 7.012-7.01h85.272c3.868 0 7.009 3.14 7.009 7.01z"
     fill="#fa759e"
     id="path104" />
  <path
     d="m99.08 183.151h-85.272c-3.055 0-5.619-1.958-6.584-4.678-.263.735-.428 1.512-.428 2.331 0 3.874 3.133 7.009 7.012 7.009h85.272c3.868 0 7.009-3.136 7.009-7.009 0-.82-.172-1.597-.428-2.331-.964 2.719-3.535 4.678-6.581 4.678z"
     fill="#dd5e8c"
     id="path106" />
  <path
     d="m106.089 213.151c0 3.87-3.141 7.009-7.009 7.009h-85.272c-3.879 0-7.012-3.139-7.012-7.009 0-3.874 3.133-7.01 7.012-7.01h85.272c3.868.001 7.009 3.136 7.009 7.01z"
     fill="#fa759e"
     id="path108" />
  <path
     d="m99.08 215.521h-85.272c-3.055 0-5.628-1.965-6.59-4.69-.257.73-.422 1.5-.422 2.32 0 3.87 3.133 7.009 7.012 7.009h85.272c3.868 0 7.009-3.139 7.009-7.009 0-.82-.172-1.589-.428-2.32-.956 2.725-3.528 4.69-6.581 4.69z"
     fill="#dd5e8c"
     id="path110" />
  <path
     d="m99.08 189.603h-85.272c-4.853 0-8.801-3.947-8.801-8.798s3.948-8.799 8.801-8.799h85.272c4.852 0 8.798 3.947 8.798 8.799s-3.946 8.798-8.798 8.798zm-85.272-14.02c-2.88 0-5.223 2.342-5.223 5.221 0 2.878 2.343 5.22 5.223 5.22h85.272c2.878 0 5.22-2.342 5.22-5.22 0-2.879-2.342-5.221-5.22-5.221z"
     fill="#24202b"
     id="path112" />
  <path
     d="m99.08 221.95h-85.272c-4.853 0-8.801-3.947-8.801-8.798s3.948-8.799 8.801-8.799h85.272c4.852 0 8.798 3.947 8.798 8.799s-3.946 8.798-8.798 8.798zm-85.272-14.019c-2.88 0-5.223 2.342-5.223 5.221 0 2.878 2.343 5.22 5.223 5.22h85.272c2.878 0 5.22-2.342 5.22-5.22 0-2.879-2.342-5.221-5.22-5.221z"
     fill="#24202b"
     id="path114" />
  <text
     xml:space="preserve"
     style="font-style:normal;font-variant:normal;font-weight:bold;font-stretch:normal;font-size:23.56866646px;line-height:1.25;font-family:Candara;-inkscape-font-specification:'Candara, Bold';font-variant-ligatures:normal;font-variant-caps:normal;font-variant-numeric:normal;font-feature-settings:normal;text-align:start;letter-spacing:0px;word-spacing:0px;writing-mode:lr-tb;text-anchor:start;fill:#008000;fill-opacity:1;stroke:none;stroke-width:1.26262462;stroke-opacity:1;"
     x="13.646688"
     y="26.879519"
     id="text4703"><tspan
       sodipodi:role="line"
       id="tspan4701"
       x="13.646688"
       y="26.879519"
       style="font-style:normal;font-variant:normal;font-weight:bold;font-stretch:normal;font-size:23.56866646px;font-family:Candara;-inkscape-font-specification:'Candara, Bold';font-variant-ligatures:normal;font-variant-caps:normal;font-variant-numeric:normal;font-feature-settings:normal;text-align:start;writing-mode:lr-tb;text-anchor:start;fill:#008000;stroke-width:1.26262462;stroke:none;stroke-opacity:1;">Diizinkan</tspan></text>
  <g
     id="g4763"
     transform="matrix(0.12213671,0,0,0.12213671,178.27896,16.793151)">
    <g
       id="g4707">
	<path
   id="path4705"
   d="m 457.575,325.1 c 9.8,-12.5 14.5,-25.9 13.9,-39.7 -0.6,-15.2 -7.4,-27.1 -13,-34.4 6.5,-16.2 9,-41.7 -12.7,-61.5 -15.9,-14.5 -42.9,-21 -80.3,-19.2 -26.3,1.2 -48.3,6.1 -49.2,6.3 h -0.1 c -5,0.9 -10.3,2 -15.7,3.2 -0.4,-6.4 0.7,-22.3 12.5,-58.1 14,-42.6 13.2,-75.2 -2.6,-97 -16.6,-22.9 -43.1,-24.7 -50.9,-24.7 -7.5,0 -14.4,3.1 -19.3,8.8 -11.1,12.9 -9.8,36.7 -8.4,47.7 -13.2,35.4 -50.2,122.2 -81.5,146.3 -0.6,0.4 -1.1,0.9 -1.6,1.4 -9.2,9.7 -15.4,20.2 -19.6,29.4 -5.9,-3.2 -12.6,-5 -19.8,-5 h -61 c -23,0 -41.6,18.7 -41.6,41.6 v 162.5 c 0,23 18.7,41.6 41.6,41.6 h 61 c 8.9,0 17.2,-2.8 24,-7.6 l 23.5,2.8 c 3.6,0.5 67.6,8.6 133.3,7.3 11.9,0.9 23.1,1.4 33.5,1.4 17.9,0 33.5,-1.4 46.5,-4.2 30.6,-6.5 51.5,-19.5 62.1,-38.6 8.1,-14.6 8.1,-29.1 6.8,-38.3 19.9,-18 23.4,-37.9 22.7,-51.9 -0.4,-8.1 -2.2,-15 -4.1,-20.1 z m -409.3,122.2 c -8.1,0 -14.6,-6.6 -14.6,-14.6 V 270.1 c 0,-8.1 6.6,-14.6 14.6,-14.6 h 61 c 8.1,0 14.6,6.6 14.6,14.6 v 162.5 c 0,8.1 -6.6,14.6 -14.6,14.6 h -61 z m 383.7,-133.9 c -4.2,4.4 -5,11.1 -1.8,16.3 0,0.1 4.1,7.1 4.6,16.7 0.7,13.1 -5.6,24.7 -18.8,34.6 -4.7,3.6 -6.6,9.8 -4.6,15.4 0,0.1 4.3,13.3 -2.7,25.8 -6.7,12 -21.6,20.6 -44.2,25.4 -18.1,3.9 -42.7,4.6 -72.9,2.2 -0.4,0 -0.9,0 -1.4,0 -64.3,1.4 -129.3,-7 -130,-7.1 h -0.1 l -10.1,-1.2 c 0.6,-2.8 0.9,-5.8 0.9,-8.8 V 270.1 c 0,-4.3 -0.7,-8.5 -1.9,-12.4 1.8,-6.7 6.8,-21.6 18.6,-34.3 44.9,-35.6 88.8,-155.7 90.7,-160.9 0.8,-2.1 1,-4.4 0.6,-6.7 -1.7,-11.2 -1.1,-24.9 1.3,-29 5.3,0.1 19.6,1.6 28.2,13.5 10.2,14.1 9.8,39.3 -1.2,72.7 -16.8,50.9 -18.2,77.7 -4.9,89.5 6.6,5.9 15.4,6.2 21.8,3.9 6.1,-1.4 11.9,-2.6 17.4,-3.5 0.4,-0.1 0.9,-0.2 1.3,-0.3 30.7,-6.7 85.7,-10.8 104.8,6.6 16.2,14.8 4.7,34.4 3.4,36.5 -3.7,5.6 -2.6,12.9 2.4,17.4 0.1,0.1 10.6,10 11.1,23.3 0.4,8.9 -3.8,18 -12.5,27 z"
   inkscape:connector-curvature="0" />

</g>
    <g
       id="g4709">
</g>
    <g
       id="g4711">
</g>
    <g
       id="g4713">
</g>
    <g
       id="g4715">
</g>
    <g
       id="g4717">
</g>
    <g
       id="g4719">
</g>
    <g
       id="g4721">
</g>
    <g
       id="g4723">
</g>
    <g
       id="g4725">
</g>
    <g
       id="g4727">
</g>
    <g
       id="g4729">
</g>
    <g
       id="g4731">
</g>
    <g
       id="g4733">
</g>
    <g
       id="g4735">
</g>
    <g
       id="g4737">
</g>
  </g>
  <path
     style="fill:#ffb380;stroke:none;stroke-width:1.97800004;stroke-miterlimit:4;stroke-dasharray:none;stroke-opacity:1"
     d="m 205.11828,71.272413 c -1.34237,-0.09506 -3.72203,-0.314045 -5.28814,-0.48664 l -2.84745,-0.313815 V 58.596888 46.721815 l 2.35121,-2.647344 c 4.89356,-5.509881 10.66574,-17.145882 10.66574,-21.500808 0,-2.06939 0.13033,-2.328692 1.04962,-2.088292 3.19086,0.83443 3.79042,4.68635 1.7443,11.206519 -0.64174,2.044981 -1.16681,4.895345 -1.16681,6.334141 0,3.384152 1.0559,4.539864 3.74885,4.103222 1.07034,-0.173548 4.19588,-0.472552 6.94565,-0.664453 7.41731,-0.517638 9.34257,0.586033 8.53466,4.892572 -0.24792,1.32153 -0.0938,2.260661 0.51335,3.127441 1.10039,1.571025 1.10255,3.132555 0.007,4.69737 -0.64452,0.920175 -0.77119,1.88354 -0.50355,3.829535 0.31454,2.28696 0.18964,2.799685 -1.03716,4.25765 -0.94111,1.118445 -1.39476,2.302065 -1.39476,3.639075 0,2.49124 -1.79482,4.28188 -5.13488,5.122915 -2.17172,0.54685 -12.02469,0.67744 -18.18715,0.241055 z"
     id="path4767"
     inkscape:connector-curvature="0" />
  <path
     style="fill:#008080;stroke:none;stroke-width:1.97800004;stroke-miterlimit:4;stroke-dasharray:none;stroke-opacity:1"
     d="m 183.13118,70.419678 c -0.15095,-0.393355 -0.20797,-5.467325 -0.12672,-11.27548 l 0.14772,-10.560285 h 4.88135 4.88136 v 11.118645 11.11864 l -4.75463,0.15684 c -3.54998,0.1171 -4.82417,-0.02435 -5.02908,-0.55836 z"
     id="path4769"
     inkscape:connector-curvature="0" />
  <circle
     style="fill:#d35f5f;stroke:none;stroke-width:3.32663655;stroke-miterlimit:4;stroke-dasharray:none;stroke-opacity:1"
     id="path4773"
     cx="189.217"
     cy="53.168221"
     r="1.7737594" />
</svg>
