<?xml version="1.0" encoding="UTF-8" standalone="no"?>
<svg
   xmlns:dc="http://purl.org/dc/elements/1.1/"
   xmlns:cc="http://creativecommons.org/ns#"
   xmlns:rdf="http://www.w3.org/1999/02/22-rdf-syntax-ns#"
   xmlns:svg="http://www.w3.org/2000/svg"
   xmlns="http://www.w3.org/2000/svg"
   xmlns:sodipodi="http://sodipodi.sourceforge.net/DTD/sodipodi-0.dtd"
   xmlns:inkscape="http://www.inkscape.org/namespaces/inkscape"
   id="Layer_1"
   enable-background="new 0 0 256 256"
   height="512"
   viewBox="0 0 256 256"
   width="512"
   version="1.1"
   sodipodi:docname="diizinkanbersyarat.svg"
   inkscape:version="0.92.4 (5da689c313, 2019-01-14)"
   inkscape:export-filename="E:\2019\Sitaru DPTR\icon web\diizinkanbersyarat.png"
   inkscape:export-xdpi="96"
   inkscape:export-ydpi="96">
  <metadata
     id="metadata121">
    <rdf:RDF>
      <cc:Work
         rdf:about="">
        <dc:format>image/svg+xml</dc:format>
        <dc:type
           rdf:resource="http://purl.org/dc/dcmitype/StillImage" />
        <dc:title />
      </cc:Work>
    </rdf:RDF>
  </metadata>
  <defs
     id="defs119" />
  <sodipodi:namedview
     pagecolor="#ffffff"
     bordercolor="#666666"
     borderopacity="1"
     objecttolerance="10"
     gridtolerance="10"
     guidetolerance="10"
     inkscape:pageopacity="0"
     inkscape:pageshadow="2"
     inkscape:window-width="1366"
     inkscape:window-height="705"
     id="namedview117"
     showgrid="false"
     inkscape:zoom="0.921875"
     inkscape:cx="172.05833"
     inkscape:cy="259.70288"
     inkscape:window-x="-8"
     inkscape:window-y="-8"
     inkscape:window-maximized="1"
     inkscape:current-layer="Layer_1" />
  <path
     d="m150.734 108.521c0-.007 0-.016 0-.027v-4.81c0-17.384-14.766-31.478-32.974-31.478-18.215 0-32.98 14.093-32.98 31.478v4.717c-15.619 1.325-27.921 14.279-27.921 30.237 0 16.832 13.654 30.494 30.492 30.494h26.081c1.282 0 2.495-.225 3.737-.385 1.244.16 2.456.385 3.737.385h26.08c16.841 0 30.485-13.662 30.485-30.494.002-15.558-11.693-28.251-26.737-30.117z"
     fill="#1d966a"
     id="path2" />
  <path
     d="m150.734 108.521c0-.007 0-.016 0-.027v-4.81c0-17.384-14.766-31.478-32.974-31.478-18.215 0-32.98 14.093-32.98 31.478v4.717c-15.619 1.325-27.921 14.279-27.921 30.237 0 16.832 13.654 30.494 30.492 30.494h26.081c1.282 0 2.495-.225 3.737-.385 1.244.16 2.456.385 3.737.385h26.08c16.841 0 30.485-13.662 30.485-30.494.002-15.558-11.693-28.251-26.737-30.117z"
     fill="#1d966a"
     id="path4" />
  <path
     d="m150.734 108.521c0-.007 0-.016 0-.027v-4.81c0-17.384-14.766-31.478-32.974-31.478-3.209 0-6.311.462-9.239 1.279 13.701 3.814 23.725 15.88 23.725 30.198v4.81.027c15.046 1.866 26.748 14.559 26.748 30.117 0 16.832-13.653 30.494-30.494 30.494h18.487c16.841 0 30.485-13.662 30.485-30.494.001-15.557-11.694-28.25-26.738-30.116z"
     fill="#7fd57a"
     id="path6" />
  <path
     d="m94.945 169.132h7.476c-1.282 0-2.494-.225-3.738-.385-1.245.16-2.455.385-3.738.385z"
     fill="#7fd57a"
     id="path8" />
  <path
     d="m146.987 170.921h-26.08c-1.113 0-2.141-.145-3.135-.286-.2-.028-.401-.057-.603-.084-.199.027-.398.055-.598.083-.995.141-2.024.286-3.14.286h-26.079c-17.8 0-32.281-14.482-32.281-32.283 0-16.275 11.891-29.688 27.921-31.841v-3.113c0-18.343 15.598-33.267 34.77-33.267 5.152 0 10.116 1.057 14.753 3.142.901.405 1.304 1.464.898 2.365s-1.465 1.302-2.365.898c-4.173-1.876-8.643-2.827-13.286-2.827-17.199 0-31.191 13.318-31.191 29.688v4.717c0 .929-.712 1.704-1.638 1.783-14.984 1.271-26.283 13.504-26.283 28.455 0 15.828 12.876 28.705 28.703 28.705h26.081c.863 0 1.726-.122 2.639-.251.289-.041.579-.082.87-.119.152-.02.306-.02.456 0 .293.038.585.079.876.12.911.129 1.772.25 2.634.25h26.08c15.823 0 28.696-12.877 28.696-28.705 0-.988.801-1.789 1.789-1.789s1.789.801 1.789 1.789c-.001 17.802-14.48 32.284-32.276 32.284z"
     fill="#24202b"
     id="path10" />
  <path
     d="m147.113 135.958c1.196-1.193 1.196-3.117 0-4.305-1.183-1.186-3.101-1.186-4.29.007l-16.186 16.195v-24.433l9.705-9.706c1.431-1.426 1.431-3.734 0-5.161-1.422-1.426-3.729-1.426-5.159 0l-12.769 12.769h-.202l-12.774-12.769c-1.423-1.426-3.731-1.426-5.161 0-1.423 1.426-1.423 3.734 0 5.161l9.938 9.931v23.5l-15.48-15.488c-1.188-1.193-3.115-1.193-4.297-.007-1.188 1.189-1.188 3.112 0 4.305l19.777 19.781v71.723h-12.318c-1.927 0-3.488 1.559-3.488 3.498 0 1.927 1.562 3.489 3.488 3.489h40.45c1.934 0 3.496-1.562 3.496-3.489 0-1.939-1.562-3.498-3.496-3.498h-11.711v-71.023z"
     fill="#ff8b38"
     id="path12" />
  <path
     d="m126.084 113.717-9.706 9.706v24.433l10.259-10.262v-14.17l9.705-9.706c1.431-1.426 1.431-3.734 0-5.161-1.422-1.426-3.729-1.426-5.159 0l-4.975 4.97c-.047.058-.069.135-.124.19z"
     fill="#f9a369"
     id="path14" />
  <path
     d="m147.113 131.652c-1.183-1.186-3.101-1.186-4.29.007l-16.186 16.195v-1.675l-10.259 10.258v71.023h10.259v-71.023l20.477-20.481c1.196-1.192 1.196-3.115-.001-4.304z"
     fill="#f9a369"
     id="path16" />
  <path
     d="m138.348 227.461h-10.26c1.936 0 3.497 1.559 3.497 3.498 0 1.927-1.561 3.489-3.497 3.489h10.26c1.934 0 3.496-1.562 3.496-3.489 0-1.939-1.562-3.498-3.496-3.498z"
     fill="#f9a369"
     id="path18" />
  <path
     d="m138.348 236.237h-40.45c-2.91 0-5.277-2.368-5.277-5.278 0-2.915 2.367-5.287 5.277-5.287h10.528v-69.193l-19.253-19.256c-1.882-1.89-1.881-4.955 0-6.835.906-.91 2.117-1.412 3.407-1.412 1.293 0 2.508.505 3.422 1.422l12.424 12.43v-18.438l-9.414-9.406c-2.116-2.122-2.116-5.57-.002-7.69 2.128-2.122 5.578-2.12 7.694 0l11.608 11.604 11.605-11.605c1.03-1.028 2.396-1.593 3.848-1.593s2.817.566 3.843 1.595c1.027 1.024 1.596 2.391 1.596 3.844s-.568 2.819-1.6 3.847l-9.179 9.18v19.371l13.132-13.139c.913-.915 2.126-1.42 3.416-1.42 1.287 0 2.497.502 3.406 1.414.912.906 1.418 2.119 1.42 3.41.001 1.292-.504 2.508-1.421 3.424l-19.953 19.957v68.493h9.922c2.914 0 5.285 2.372 5.285 5.287.001 2.906-2.37 5.274-5.284 5.274zm-40.451-6.987c-.937 0-1.699.767-1.699 1.708 0 .938.763 1.7 1.699 1.7h40.45c.941 0 1.707-.762 1.707-1.7 0-.942-.766-1.708-1.707-1.708h-11.711c-.988 0-1.789-.801-1.789-1.789v-71.023c0-.475.188-.929.523-1.265l20.477-20.481c.001-.001.002-.001.002-.002.24-.239.372-.555.372-.889-.001-.332-.132-.644-.369-.88-.481-.482-1.289-.472-1.763.001l-16.188 16.197c-.514.512-1.283.665-1.95.388-.668-.277-1.104-.929-1.104-1.653v-24.433c0-.475.188-.93.524-1.265l9.705-9.706c.354-.354.549-.82.549-1.315 0-.496-.194-.962-.547-1.313-.709-.71-1.928-.704-2.633 0l-12.768 12.767c-.335.335-.79.524-1.265.524h-.202c-.475 0-.93-.188-1.265-.524l-12.774-12.769c-.727-.726-1.906-.724-2.633.001-.722.723-.722 1.904.003 2.63l9.937 9.929c.336.335.524.791.524 1.266v23.5c0 .724-.436 1.376-1.104 1.653-.671.277-1.438.124-1.95-.388l-15.48-15.488c-.239-.24-.554-.371-.889-.371-.332 0-.643.128-.875.362-.491.491-.49 1.288 0 1.78l19.774 19.778c.336.336.524.791.524 1.265v71.723c0 .988-.801 1.789-1.789 1.789h-12.316z"
     fill="#24202b"
     id="path20" />
  <path
     d="m226.649 236.237h-211.171c-.988 0-1.789-.801-1.789-1.789s.801-1.789 1.789-1.789h211.172c.988 0 1.789.801 1.789 1.789s-.801 1.789-1.79 1.789z"
     fill="#24202b"
     id="path30" />
  <path
     d="m152.592 172.523v57.063c0 2.685 2.176 4.861 4.856 4.861h75.13c2.682 0 4.85-2.176 4.85-4.861v-57.063z"
     fill="#eee"
     id="path52" />
  <path
     d="m152.592 172.523v57.063c0 2.685 2.176 4.861 4.856 4.861h8.689v-61.924z"
     fill="#c2cbe8"
     id="path54" />
  <path
     d="m143.374 172.523c-2.672 0-3.061-1.251-.871-2.777l48.524-33.859c2.191-1.527 5.773-1.527 7.974 0l48.53 33.859c2.184 1.527 1.795 2.777-.878 2.777z"
     fill="#7fd57a"
     id="path56" />
  <path
     d="m158.271 169.746 44.629-31.135-3.899-2.724c-2.201-1.527-5.782-1.527-7.974 0l-48.524 33.859c-2.19 1.527-1.801 2.777.871 2.777h15.768c-2.672 0-3.069-1.25-.871-2.777z"
     fill="#1d966a"
     id="path58" />
  <path
     d="m228.382 234.425v-22.898c0-7.045-5.704-12.748-12.743-12.748-7.033 0-12.738 5.703-12.738 12.748v22.898z"
     fill="#ff8b38"
     id="path60" />
  <path
     d="m230.171 236.214h-29.06v-24.687c0-8.016 6.517-14.537 14.527-14.537 8.013 0 14.532 6.521 14.532 14.537v24.687zm-25.482-3.578h21.903v-21.108c0-6.043-4.914-10.959-10.954-10.959-6.037 0-10.949 4.916-10.949 10.959z"
     fill="#24202b"
     id="path62" />
  <path
     d="m232.578 236.237h-75.13c-3.664 0-6.646-2.983-6.646-6.65v-57.063c0-.988.801-1.789 1.789-1.789h84.836c.988 0 1.789.801 1.789 1.789v57.063c.001 3.666-2.978 6.65-6.638 6.65zm-78.197-61.925v55.274c0 1.694 1.376 3.072 3.067 3.072h75.13c1.688 0 3.061-1.378 3.061-3.072v-55.274z"
     fill="#24202b"
     id="path64" />
  <path
     d="m246.653 174.312h-103.279c-2.74 0-3.669-1.125-3.966-2.068-.296-.944-.178-2.398 2.071-3.966l48.524-33.858c2.804-1.954 7.203-1.956 10.017-.002l48.534 33.861c2.245 1.57 2.362 3.023 2.065 3.966s-1.225 2.067-3.966 2.067zm-102.44-3.578h101.608l-47.844-33.38c-1.581-1.097-4.353-1.098-5.928 0z"
     fill="#24202b"
     id="path66" />
  <path
     d="m222.579 221.651c-.988 0-1.789-.801-1.789-1.789v-3.256c0-.988.801-1.789 1.789-1.789s1.789.801 1.789 1.789v3.256c0 .988-.801 1.789-1.789 1.789z"
     fill="#24202b"
     id="path68" />
  <path
     d="m194.058 211.749c0 2.682-2.175 4.857-4.855 4.857h-23.446c-2.681 0-4.857-2.176-4.857-4.857v-23.445c0-2.681 2.177-4.857 4.857-4.857h23.446c2.681 0 4.855 2.176 4.855 4.857z"
     fill="#14a2ff"
     id="path70" />
  <path
     d="m194.058 188.303c0-2.681-2.175-4.857-4.855-4.857h-7.361l-20.756 29.565c.559 2.067 2.425 3.594 4.671 3.594h13.52l14.781-21.697z"
     fill="#14a2ff"
     id="path72" />
  <path
     d="m165.756 183.446c-2.681 0-4.857 2.176-4.857 4.857v15.515l14.438-20.372z"
     fill="#14a2ff"
     id="path74" />
  <path
     d="m179.276 216.606h8.177l6.605-9.582v-12.115z"
     fill="#b8dff4"
     id="path76" />
  <path
     d="m175.336 183.446-14.438 20.372v7.931c0 .443.077.859.187 1.263l20.756-29.565h-6.505z"
     fill="#b8dff4"
     id="path78" />
  <path
     d="m189.202 218.395h-23.446c-3.665 0-6.646-2.981-6.646-6.646v-23.445c0-3.665 2.981-6.646 6.646-6.646h23.446c3.664 0 6.645 2.981 6.645 6.646v23.445c0 3.665-2.981 6.646-6.645 6.646zm-23.446-33.16c-1.692 0-3.068 1.376-3.068 3.068v23.445c0 1.692 1.376 3.068 3.068 3.068h23.446c1.69 0 3.066-1.376 3.066-3.068v-23.445c0-1.692-1.376-3.068-3.066-3.068z"
     fill="#24202b"
     id="path80" />
  <path
     d="m194.058 201.814h-33.159c-.988 0-1.789-.801-1.789-1.789s.801-1.789 1.789-1.789h33.159c.988 0 1.789.801 1.789 1.789s-.801 1.789-1.789 1.789z"
     fill="#24202b"
     id="path82" />
  <path
     d="m177.473 218.395c-.988 0-1.789-.801-1.789-1.789v-33.16c0-.988.801-1.789 1.789-1.789s1.789.801 1.789 1.789v33.16c0 .988-.801 1.789-1.789 1.789z"
     fill="#24202b"
     id="path84" />
  <path
     d="m33.965 234.448v-69.493c0-5.106-4.134-9.243-9.239-9.243s-9.248 4.137-9.248 9.243v69.493z"
     fill="#fa759e"
     id="path86" />
  <path
     d="m27.521 156.189c-.885-.284-1.816-.478-2.796-.478-5.105 0-9.248 4.137-9.248 9.243v69.493h5.61v-69.493c.001-4.121 2.713-7.572 6.434-8.765z"
     fill="#dd5e8c"
     id="path88" />
  <path
     d="m67.257 234.448v-69.493c0-5.106-4.135-9.243-9.24-9.243s-9.247 4.137-9.247 9.243v69.493z"
     fill="#fa759e"
     id="path90" />
  <path
     d="m61.04 156.259c-.947-.331-1.96-.547-3.023-.547-5.105 0-9.247 4.137-9.247 9.243v69.493h6.054v-69.493c-.001-4.04 2.61-7.437 6.216-8.696z"
     fill="#dd5e8c"
     id="path92" />
  <path
     d="m100.547 234.448v-69.493c0-5.106-4.133-9.243-9.238-9.243-5.107 0-9.248 4.137-9.248 9.243v69.493z"
     fill="#fa759e"
     id="path94" />
  <path
     d="m94.999 156.488c-1.134-.493-2.379-.776-3.69-.776-5.107 0-9.248 4.137-9.248 9.243v69.493h7.382v-69.493c-.001-3.792 2.284-7.04 5.556-8.467z"
     fill="#dd5e8c"
     id="path96" />
  <path
     d="m33.965 236.237h-18.487c-.988 0-1.789-.801-1.789-1.789v-69.493c0-6.083 4.951-11.032 11.037-11.032 6.081 0 11.028 4.949 11.028 11.032v69.493c0 .988-.801 1.789-1.789 1.789zm-16.698-3.578h14.909v-67.704c0-4.11-3.342-7.454-7.45-7.454-4.113 0-7.459 3.344-7.459 7.454z"
     fill="#24202b"
     id="path98" />
  <path
     d="m67.257 236.237h-18.487c-.988 0-1.789-.801-1.789-1.789v-69.493c0-6.083 4.951-11.032 11.036-11.032 6.081 0 11.029 4.949 11.029 11.032v69.493c0 .988-.801 1.789-1.789 1.789zm-16.698-3.578h14.909v-67.704c0-4.11-3.343-7.454-7.451-7.454-4.112 0-7.458 3.344-7.458 7.454z"
     fill="#24202b"
     id="path100" />
  <path
     d="m100.547 236.237h-18.486c-.988 0-1.789-.801-1.789-1.789v-69.493c0-6.083 4.951-11.032 11.037-11.032 6.08 0 11.027 4.949 11.027 11.032v69.493c0 .988-.801 1.789-1.789 1.789zm-16.697-3.578h14.908v-67.704c0-4.11-3.342-7.454-7.449-7.454-4.113 0-7.459 3.344-7.459 7.454z"
     fill="#24202b"
     id="path102" />
  <path
     d="m106.089 180.804c0 3.874-3.141 7.009-7.009 7.009h-85.272c-3.879 0-7.012-3.136-7.012-7.009 0-3.87 3.133-7.01 7.012-7.01h85.272c3.868 0 7.009 3.14 7.009 7.01z"
     fill="#fa759e"
     id="path104" />
  <path
     d="m99.08 183.151h-85.272c-3.055 0-5.619-1.958-6.584-4.678-.263.735-.428 1.512-.428 2.331 0 3.874 3.133 7.009 7.012 7.009h85.272c3.868 0 7.009-3.136 7.009-7.009 0-.82-.172-1.597-.428-2.331-.964 2.719-3.535 4.678-6.581 4.678z"
     fill="#dd5e8c"
     id="path106" />
  <path
     d="m106.089 213.151c0 3.87-3.141 7.009-7.009 7.009h-85.272c-3.879 0-7.012-3.139-7.012-7.009 0-3.874 3.133-7.01 7.012-7.01h85.272c3.868.001 7.009 3.136 7.009 7.01z"
     fill="#fa759e"
     id="path108" />
  <path
     d="m99.08 215.521h-85.272c-3.055 0-5.628-1.965-6.59-4.69-.257.73-.422 1.5-.422 2.32 0 3.87 3.133 7.009 7.012 7.009h85.272c3.868 0 7.009-3.139 7.009-7.009 0-.82-.172-1.589-.428-2.32-.956 2.725-3.528 4.69-6.581 4.69z"
     fill="#dd5e8c"
     id="path110" />
  <path
     d="m99.08 189.603h-85.272c-4.853 0-8.801-3.947-8.801-8.798s3.948-8.799 8.801-8.799h85.272c4.852 0 8.798 3.947 8.798 8.799s-3.946 8.798-8.798 8.798zm-85.272-14.02c-2.88 0-5.223 2.342-5.223 5.221 0 2.878 2.343 5.22 5.223 5.22h85.272c2.878 0 5.22-2.342 5.22-5.22 0-2.879-2.342-5.221-5.22-5.221z"
     fill="#24202b"
     id="path112" />
  <path
     d="m99.08 221.95h-85.272c-4.853 0-8.801-3.947-8.801-8.798s3.948-8.799 8.801-8.799h85.272c4.852 0 8.798 3.947 8.798 8.799s-3.946 8.798-8.798 8.798zm-85.272-14.019c-2.88 0-5.223 2.342-5.223 5.221 0 2.878 2.343 5.22 5.223 5.22h85.272c2.878 0 5.22-2.342 5.22-5.22 0-2.879-2.342-5.221-5.22-5.221z"
     fill="#24202b"
     id="path114" />
  <text
     xml:space="preserve"
     style="font-style:normal;font-variant:normal;font-weight:bold;font-stretch:normal;font-size:23.56866646px;line-height:1.25;font-family:Candara;-inkscape-font-specification:'Candara, Bold';font-variant-ligatures:normal;font-variant-caps:normal;font-variant-numeric:normal;font-feature-settings:normal;text-align:start;letter-spacing:0px;word-spacing:0px;writing-mode:lr-tb;text-anchor:start;fill:#008000;fill-opacity:1;stroke:none;stroke-width:1.26262462;stroke-opacity:1"
     x="9.811533"
     y="25.345455"
     id="text4703"><tspan
       sodipodi:role="line"
       id="tspan4701"
       x="9.811533"
       y="25.345455"
       style="font-style:normal;font-variant:normal;font-weight:bold;font-stretch:normal;font-size:23.56866646px;font-family:Candara;-inkscape-font-specification:'Candara, Bold';font-variant-ligatures:normal;font-variant-caps:normal;font-variant-numeric:normal;font-feature-settings:normal;text-align:start;writing-mode:lr-tb;text-anchor:start;fill:#0000ff;stroke:none;stroke-width:1.26262462;stroke-opacity:1">Diizinkan</tspan><tspan
       sodipodi:role="line"
       x="9.811533"
       y="54.80629"
       style="font-style:normal;font-variant:normal;font-weight:bold;font-stretch:normal;font-size:23.56866646px;font-family:Candara;-inkscape-font-specification:'Candara, Bold';font-variant-ligatures:normal;font-variant-caps:normal;font-variant-numeric:normal;font-feature-settings:normal;text-align:start;writing-mode:lr-tb;text-anchor:start;fill:#0000ff;stroke:none;stroke-width:1.26262462;stroke-opacity:1"
       id="tspan4809">    Bersyarat</tspan></text>
  <g
     id="g4830">
    <path
       id="path4775"
       d="m 228.65206,53.486911 c 0,-2.281911 1.72726,-4.131866 3.85846,-4.131866 h 0.0857 c 2.1256,0 3.85286,1.842672 3.85678,4.1201 0.0174,7.452485 0.007,8.185297 -0.004,19.318083 -0.006,6.250742 -4.7375,11.313189 -10.57198,11.313189 h -12.52837 c -3.83382,0 -7.36789,-2.223084 -9.23521,-5.811504 l -11.16977,-21.45881 1.16757,-0.968117 c 2.41525,-2.220283 6.04961,-1.946318 8.15224,0.613476 l 3.12677,3.805239 0.0168,-26.180621 c 0.003,-2.28079 1.72838,-4.129625 3.85846,-4.129625 h 0.001 c 2.13008,0 3.85846,1.850516 3.85846,4.132426 V 49.91866 c 0.0689,-2.216362 1.76816,-3.990122 3.8551,-3.990122 h 0.0902 c 2.13009,0 3.85678,1.849955 3.85678,4.133546 v 1.32948 c 0,-2.28191 1.72838,-4.132425 3.85847,-4.132425 h 0.008 c 2.1312,0 3.8579,1.850515 3.8579,4.132425 z m 0,0"
       inkscape:connector-curvature="0"
       style="fill:#f7caa5;stroke-width:0.14342476" />
    <path
       id="path4777"
       d="m 185.7322,20.259428 c 7.37853,0 13.36035,5.981821 13.36035,13.360353 0,7.378531 -5.98182,13.359791 -13.36035,13.359791 -7.37853,0 -13.35979,-5.98126 -13.35979,-13.359791 0,-7.378532 5.98126,-13.360353 13.35979,-13.360353 z m 9.35286,13.360353 c 0,-5.165533 -4.18733,-9.352864 -9.35286,-9.352864 -5.16497,0 -9.3523,4.187331 -9.3523,9.352864 0,5.165532 4.18733,9.352862 9.3523,9.352862 5.16553,0 9.35286,-4.18733 9.35286,-9.352862 z m 0,0"
       inkscape:connector-curvature="0"
       style="fill:#00acea;stroke-width:0.14342476" />
    <path
       id="path4779"
       d="m 195.08506,33.619781 c 0,5.165532 -4.18733,9.352862 -9.35286,9.352862 -5.16497,0 -9.3523,-4.18733 -9.3523,-9.352862 0,-5.165533 4.18733,-9.352864 9.3523,-9.352864 5.16553,0 9.35286,4.187331 9.35286,9.352864 z m 0,0"
       inkscape:connector-curvature="0"
       style="fill:#00efd1;stroke-width:0.14342476" />
    <path
       inkscape:connector-curvature="0"
       d="m 232.59624,48.167308 h -0.0857 c -1.13843,0.01008 -2.23653,0.420751 -3.10156,1.160285 -0.75914,-1.899258 -2.54355,-3.225937 -4.62321,-3.225937 -1.24992,-0.0039 -2.45222,0.476776 -3.35423,1.341806 -0.85887,-1.606806 -2.49145,-2.718348 -4.35989,-2.718348 h -0.0908 c -0.95971,0.0084 -1.89254,0.318785 -2.6668,0.886321 V 34.108881 c 0,-2.911635 -2.26623,-5.279264 -5.02771,-5.279264 -2.75645,0 -5.01203,2.366509 -5.01595,5.275902 l -0.0202,22.979897 -1.09753,-1.331722 c -1.17934,-1.468423 -2.91668,-2.380514 -4.79521,-2.518337 -1.83875,-0.126057 -3.64837,0.513191 -4.9997,1.767038 l -1.14627,0.950189 c -0.41571,0.345116 -0.53505,0.933942 -0.28517,1.412957 l 11.16976,21.489625 c 2.06341,3.965469 5.99191,6.459155 10.25263,6.459155 h 12.52838 c 6.45579,0 11.71264,-5.619336 11.71937,-12.489719 0.003,-2.813591 0.006,-4.976727 0.008,-6.738722 0.007,-5.256294 0.009,-7.054705 -0.004,-12.625302 -0.006,-2.903229 -2.24997,-5.29327 -5.00417,-5.29327 z m 2.71331,17.900083 c -0.002,1.761435 -0.005,3.94138 -0.008,6.75553 -0.006,5.605892 -4.23327,10.197724 -9.42457,10.197724 H 213.3486 c -3.4013,0 -6.54992,-2.020271 -8.21723,-5.224358 l -10.74229,-20.653166 0.45436,-0.384332 c 0.014,-0.01232 0.0297,-0.02857 0.0443,-0.04258 0.88912,-0.839259 2.08751,-1.270653 3.30774,-1.190538 1.2488,0.0958 2.40124,0.706479 3.18167,1.685241 l 3.12677,3.804678 c 0.30758,0.374249 0.81685,0.514873 1.2729,0.351839 0.45605,-0.163594 0.76026,-0.59555 0.76082,-1.080168 l 0.0168,-26.180061 c 0.002,-1.644903 1.23928,-2.983347 2.73348,-2.983347 1.49363,0 2.73123,1.339005 2.73123,2.985028 v 15.805297 c 0,0.04874 -0.003,0.09748 -0.003,0.146786 0,0.01849 0.003,0.03698 0.003,0.05546 v 6.763934 c 0,0.633646 0.51375,1.147398 1.1474,1.147398 0.63364,0 1.14739,-0.513752 1.14739,-1.147398 v -6.933691 c 0,-1.610728 1.20007,-2.926762 2.66625,-2.926762 h 0.0902 c 1.49419,0 2.6937,1.395591 2.6937,3.042174 v 6.173987 c 0,0.634207 0.51375,1.147398 1.14739,1.147398 0.63365,0 1.1474,-0.513191 1.1474,-1.147398 v -4.844507 c 0,-1.646022 1.2264,-2.985027 2.72955,-2.985027 1.49476,0 2.72059,1.339005 2.72059,2.985027 v 4.570545 c 0,0.634205 0.51375,1.147398 1.1474,1.147398 0.63365,0 1.1474,-0.513193 1.1474,-1.147398 v -2.475198 c 0,-1.646024 1.21183,-3.024806 2.70658,-3.024806 h 0.0857 c 1.49083,0 2.70658,1.354691 2.70938,2.995672 0.0129,5.566674 0.0106,7.356682 0.004,12.609614 z m 0,0"
       id="path4781"
       style="fill:#083863;stroke-width:0.14342476" />
    <path
       inkscape:connector-curvature="0"
       d="m 185.7322,23.119519 c -5.79862,0 -10.4997,4.701083 -10.4997,10.500262 0,5.799178 4.70108,10.50026 10.4997,10.50026 5.79918,0 10.50026,-4.701082 10.50026,-10.50026 -0.007,-5.796378 -4.70388,-10.493539 -10.50026,-10.500262 z m 0,18.705726 c -4.53133,0 -8.2049,-3.67414 -8.2049,-8.205464 0,-4.531887 3.67357,-8.205466 8.2049,-8.205466 4.53189,0 8.20546,3.673579 8.20546,8.205466 -0.005,4.529645 -3.67581,8.200422 -8.20546,8.205464 z m 0,0"
       id="path4783"
       style="fill:#083863;stroke-width:0.14342476" />
    <path
       inkscape:connector-curvature="0"
       d="m 183.05021,32.513798 2.47221,1.837766 2.75561,-3.289182 c 0.37342,-0.445729 1.05985,-0.521923 1.53305,-0.170167 0.47319,0.351757 0.55407,0.998345 0.18064,1.444076 l -3.46812,4.139655 c -0.17101,0.209916 -0.42642,0.343662 -0.70574,0.370734 -0.27941,0.02638 -0.558,-0.05602 -0.77048,-0.228679 l -3.34955,-2.489959 c -0.47319,-0.351756 -0.55408,-0.998346 -0.18065,-1.444077 0.37342,-0.445729 1.05984,-0.521924 1.53303,-0.170167 z m 0,0"
       id="path4785"
       style="fill:#0000ff;stroke-width:0.13242215" />
    <path
       inkscape:connector-curvature="0"
       d="m 200.23995,33.619781 c 0,-8.012178 -6.49557,-14.507751 -14.50775,-14.507751 -8.01218,0 -14.50719,6.495573 -14.50719,14.507751 0,8.012177 6.49501,14.507189 14.50719,14.507189 8.00882,-0.009 14.49879,-6.498934 14.50775,-14.507189 z M 185.7322,45.832174 c -6.74489,0 -12.21239,-5.467508 -12.21239,-12.212393 0,-6.744886 5.4675,-12.212955 12.21239,-12.212955 6.74489,0 12.21295,5.468069 12.21295,12.212955 -0.008,6.741523 -5.47087,12.20511 -12.21295,12.212393 z m 0,0"
       id="path4787"
       style="fill:#083863;stroke-width:0.14342476" />
  </g>
</svg>
