<?xml version="1.0" encoding="UTF-8" standalone="no"?>
<svg
   xmlns:dc="http://purl.org/dc/elements/1.1/"
   xmlns:cc="http://creativecommons.org/ns#"
   xmlns:rdf="http://www.w3.org/1999/02/22-rdf-syntax-ns#"
   xmlns:svg="http://www.w3.org/2000/svg"
   xmlns="http://www.w3.org/2000/svg"
   xmlns:sodipodi="http://sodipodi.sourceforge.net/DTD/sodipodi-0.dtd"
   xmlns:inkscape="http://www.inkscape.org/namespaces/inkscape"
   id="Layer_1"
   enable-background="new 0 0 256 256"
   height="512"
   viewBox="0 0 256 256"
   width="512"
   version="1.1"
   sodipodi:docname="tidakdiizinkan.svg"
   inkscape:version="0.92.4 (5da689c313, 2019-01-14)">
  <metadata
     id="metadata121">
    <rdf:RDF>
      <cc:Work
         rdf:about="">
        <dc:format>image/svg+xml</dc:format>
        <dc:type
           rdf:resource="http://purl.org/dc/dcmitype/StillImage" />
        <dc:title></dc:title>
      </cc:Work>
    </rdf:RDF>
  </metadata>
  <defs
     id="defs119" />
  <sodipodi:namedview
     pagecolor="#ffffff"
     bordercolor="#666666"
     borderopacity="1"
     objecttolerance="10"
     gridtolerance="10"
     guidetolerance="10"
     inkscape:pageopacity="0"
     inkscape:pageshadow="2"
     inkscape:window-width="1366"
     inkscape:window-height="705"
     id="namedview117"
     showgrid="false"
     inkscape:zoom="0.65186406"
     inkscape:cx="230.75865"
     inkscape:cy="261.44697"
     inkscape:window-x="-8"
     inkscape:window-y="-8"
     inkscape:window-maximized="1"
     inkscape:current-layer="Layer_1" />
  <path
     d="m150.734 108.521c0-.007 0-.016 0-.027v-4.81c0-17.384-14.766-31.478-32.974-31.478-18.215 0-32.98 14.093-32.98 31.478v4.717c-15.619 1.325-27.921 14.279-27.921 30.237 0 16.832 13.654 30.494 30.492 30.494h26.081c1.282 0 2.495-.225 3.737-.385 1.244.16 2.456.385 3.737.385h26.08c16.841 0 30.485-13.662 30.485-30.494.002-15.558-11.693-28.251-26.737-30.117z"
     fill="#1d966a"
     id="path2" />
  <path
     d="m150.734 108.521c0-.007 0-.016 0-.027v-4.81c0-17.384-14.766-31.478-32.974-31.478-18.215 0-32.98 14.093-32.98 31.478v4.717c-15.619 1.325-27.921 14.279-27.921 30.237 0 16.832 13.654 30.494 30.492 30.494h26.081c1.282 0 2.495-.225 3.737-.385 1.244.16 2.456.385 3.737.385h26.08c16.841 0 30.485-13.662 30.485-30.494.002-15.558-11.693-28.251-26.737-30.117z"
     fill="#1d966a"
     id="path4" />
  <path
     d="m150.734 108.521c0-.007 0-.016 0-.027v-4.81c0-17.384-14.766-31.478-32.974-31.478-3.209 0-6.311.462-9.239 1.279 13.701 3.814 23.725 15.88 23.725 30.198v4.81.027c15.046 1.866 26.748 14.559 26.748 30.117 0 16.832-13.653 30.494-30.494 30.494h18.487c16.841 0 30.485-13.662 30.485-30.494.001-15.557-11.694-28.25-26.738-30.116z"
     fill="#7fd57a"
     id="path6" />
  <path
     d="m94.945 169.132h7.476c-1.282 0-2.494-.225-3.738-.385-1.245.16-2.455.385-3.738.385z"
     fill="#7fd57a"
     id="path8" />
  <path
     d="m146.987 170.921h-26.08c-1.113 0-2.141-.145-3.135-.286-.2-.028-.401-.057-.603-.084-.199.027-.398.055-.598.083-.995.141-2.024.286-3.14.286h-26.079c-17.8 0-32.281-14.482-32.281-32.283 0-16.275 11.891-29.688 27.921-31.841v-3.113c0-18.343 15.598-33.267 34.77-33.267 5.152 0 10.116 1.057 14.753 3.142.901.405 1.304 1.464.898 2.365s-1.465 1.302-2.365.898c-4.173-1.876-8.643-2.827-13.286-2.827-17.199 0-31.191 13.318-31.191 29.688v4.717c0 .929-.712 1.704-1.638 1.783-14.984 1.271-26.283 13.504-26.283 28.455 0 15.828 12.876 28.705 28.703 28.705h26.081c.863 0 1.726-.122 2.639-.251.289-.041.579-.082.87-.119.152-.02.306-.02.456 0 .293.038.585.079.876.12.911.129 1.772.25 2.634.25h26.08c15.823 0 28.696-12.877 28.696-28.705 0-.988.801-1.789 1.789-1.789s1.789.801 1.789 1.789c-.001 17.802-14.48 32.284-32.276 32.284z"
     fill="#24202b"
     id="path10" />
  <path
     d="m147.113 135.958c1.196-1.193 1.196-3.117 0-4.305-1.183-1.186-3.101-1.186-4.29.007l-16.186 16.195v-24.433l9.705-9.706c1.431-1.426 1.431-3.734 0-5.161-1.422-1.426-3.729-1.426-5.159 0l-12.769 12.769h-.202l-12.774-12.769c-1.423-1.426-3.731-1.426-5.161 0-1.423 1.426-1.423 3.734 0 5.161l9.938 9.931v23.5l-15.48-15.488c-1.188-1.193-3.115-1.193-4.297-.007-1.188 1.189-1.188 3.112 0 4.305l19.777 19.781v71.723h-12.318c-1.927 0-3.488 1.559-3.488 3.498 0 1.927 1.562 3.489 3.488 3.489h40.45c1.934 0 3.496-1.562 3.496-3.489 0-1.939-1.562-3.498-3.496-3.498h-11.711v-71.023z"
     fill="#ff8b38"
     id="path12" />
  <path
     d="m126.084 113.717-9.706 9.706v24.433l10.259-10.262v-14.17l9.705-9.706c1.431-1.426 1.431-3.734 0-5.161-1.422-1.426-3.729-1.426-5.159 0l-4.975 4.97c-.047.058-.069.135-.124.19z"
     fill="#f9a369"
     id="path14" />
  <path
     d="m147.113 131.652c-1.183-1.186-3.101-1.186-4.29.007l-16.186 16.195v-1.675l-10.259 10.258v71.023h10.259v-71.023l20.477-20.481c1.196-1.192 1.196-3.115-.001-4.304z"
     fill="#f9a369"
     id="path16" />
  <path
     d="m138.348 227.461h-10.26c1.936 0 3.497 1.559 3.497 3.498 0 1.927-1.561 3.489-3.497 3.489h10.26c1.934 0 3.496-1.562 3.496-3.489 0-1.939-1.562-3.498-3.496-3.498z"
     fill="#f9a369"
     id="path18" />
  <path
     d="m138.348 236.237h-40.45c-2.91 0-5.277-2.368-5.277-5.278 0-2.915 2.367-5.287 5.277-5.287h10.528v-69.193l-19.253-19.256c-1.882-1.89-1.881-4.955 0-6.835.906-.91 2.117-1.412 3.407-1.412 1.293 0 2.508.505 3.422 1.422l12.424 12.43v-18.438l-9.414-9.406c-2.116-2.122-2.116-5.57-.002-7.69 2.128-2.122 5.578-2.12 7.694 0l11.608 11.604 11.605-11.605c1.03-1.028 2.396-1.593 3.848-1.593s2.817.566 3.843 1.595c1.027 1.024 1.596 2.391 1.596 3.844s-.568 2.819-1.6 3.847l-9.179 9.18v19.371l13.132-13.139c.913-.915 2.126-1.42 3.416-1.42 1.287 0 2.497.502 3.406 1.414.912.906 1.418 2.119 1.42 3.41.001 1.292-.504 2.508-1.421 3.424l-19.953 19.957v68.493h9.922c2.914 0 5.285 2.372 5.285 5.287.001 2.906-2.37 5.274-5.284 5.274zm-40.451-6.987c-.937 0-1.699.767-1.699 1.708 0 .938.763 1.7 1.699 1.7h40.45c.941 0 1.707-.762 1.707-1.7 0-.942-.766-1.708-1.707-1.708h-11.711c-.988 0-1.789-.801-1.789-1.789v-71.023c0-.475.188-.929.523-1.265l20.477-20.481c.001-.001.002-.001.002-.002.24-.239.372-.555.372-.889-.001-.332-.132-.644-.369-.88-.481-.482-1.289-.472-1.763.001l-16.188 16.197c-.514.512-1.283.665-1.95.388-.668-.277-1.104-.929-1.104-1.653v-24.433c0-.475.188-.93.524-1.265l9.705-9.706c.354-.354.549-.82.549-1.315 0-.496-.194-.962-.547-1.313-.709-.71-1.928-.704-2.633 0l-12.768 12.767c-.335.335-.79.524-1.265.524h-.202c-.475 0-.93-.188-1.265-.524l-12.774-12.769c-.727-.726-1.906-.724-2.633.001-.722.723-.722 1.904.003 2.63l9.937 9.929c.336.335.524.791.524 1.266v23.5c0 .724-.436 1.376-1.104 1.653-.671.277-1.438.124-1.95-.388l-15.48-15.488c-.239-.24-.554-.371-.889-.371-.332 0-.643.128-.875.362-.491.491-.49 1.288 0 1.78l19.774 19.778c.336.336.524.791.524 1.265v71.723c0 .988-.801 1.789-1.789 1.789h-12.316z"
     fill="#24202b"
     id="path20" />
  <path
     d="m226.649 236.237h-211.171c-.988 0-1.789-.801-1.789-1.789s.801-1.789 1.789-1.789h211.172c.988 0 1.789.801 1.789 1.789s-.801 1.789-1.79 1.789z"
     fill="#24202b"
     id="path30" />
  <path
     d="m152.592 172.523v57.063c0 2.685 2.176 4.861 4.856 4.861h75.13c2.682 0 4.85-2.176 4.85-4.861v-57.063z"
     fill="#eee"
     id="path52" />
  <path
     d="m152.592 172.523v57.063c0 2.685 2.176 4.861 4.856 4.861h8.689v-61.924z"
     fill="#c2cbe8"
     id="path54" />
  <path
     d="m143.374 172.523c-2.672 0-3.061-1.251-.871-2.777l48.524-33.859c2.191-1.527 5.773-1.527 7.974 0l48.53 33.859c2.184 1.527 1.795 2.777-.878 2.777z"
     fill="#7fd57a"
     id="path56" />
  <path
     d="m158.271 169.746 44.629-31.135-3.899-2.724c-2.201-1.527-5.782-1.527-7.974 0l-48.524 33.859c-2.19 1.527-1.801 2.777.871 2.777h15.768c-2.672 0-3.069-1.25-.871-2.777z"
     fill="#1d966a"
     id="path58" />
  <path
     d="m228.382 234.425v-22.898c0-7.045-5.704-12.748-12.743-12.748-7.033 0-12.738 5.703-12.738 12.748v22.898z"
     fill="#ff8b38"
     id="path60" />
  <path
     d="m230.171 236.214h-29.06v-24.687c0-8.016 6.517-14.537 14.527-14.537 8.013 0 14.532 6.521 14.532 14.537v24.687zm-25.482-3.578h21.903v-21.108c0-6.043-4.914-10.959-10.954-10.959-6.037 0-10.949 4.916-10.949 10.959z"
     fill="#24202b"
     id="path62" />
  <path
     d="m232.578 236.237h-75.13c-3.664 0-6.646-2.983-6.646-6.65v-57.063c0-.988.801-1.789 1.789-1.789h84.836c.988 0 1.789.801 1.789 1.789v57.063c.001 3.666-2.978 6.65-6.638 6.65zm-78.197-61.925v55.274c0 1.694 1.376 3.072 3.067 3.072h75.13c1.688 0 3.061-1.378 3.061-3.072v-55.274z"
     fill="#24202b"
     id="path64" />
  <path
     d="m246.653 174.312h-103.279c-2.74 0-3.669-1.125-3.966-2.068-.296-.944-.178-2.398 2.071-3.966l48.524-33.858c2.804-1.954 7.203-1.956 10.017-.002l48.534 33.861c2.245 1.57 2.362 3.023 2.065 3.966s-1.225 2.067-3.966 2.067zm-102.44-3.578h101.608l-47.844-33.38c-1.581-1.097-4.353-1.098-5.928 0z"
     fill="#24202b"
     id="path66" />
  <path
     d="m222.579 221.651c-.988 0-1.789-.801-1.789-1.789v-3.256c0-.988.801-1.789 1.789-1.789s1.789.801 1.789 1.789v3.256c0 .988-.801 1.789-1.789 1.789z"
     fill="#24202b"
     id="path68" />
  <path
     d="m194.058 211.749c0 2.682-2.175 4.857-4.855 4.857h-23.446c-2.681 0-4.857-2.176-4.857-4.857v-23.445c0-2.681 2.177-4.857 4.857-4.857h23.446c2.681 0 4.855 2.176 4.855 4.857z"
     fill="#14a2ff"
     id="path70" />
  <path
     d="m194.058 188.303c0-2.681-2.175-4.857-4.855-4.857h-7.361l-20.756 29.565c.559 2.067 2.425 3.594 4.671 3.594h13.52l14.781-21.697z"
     fill="#14a2ff"
     id="path72" />
  <path
     d="m165.756 183.446c-2.681 0-4.857 2.176-4.857 4.857v15.515l14.438-20.372z"
     fill="#14a2ff"
     id="path74" />
  <path
     d="m179.276 216.606h8.177l6.605-9.582v-12.115z"
     fill="#b8dff4"
     id="path76" />
  <path
     d="m175.336 183.446-14.438 20.372v7.931c0 .443.077.859.187 1.263l20.756-29.565h-6.505z"
     fill="#b8dff4"
     id="path78" />
  <path
     d="m189.202 218.395h-23.446c-3.665 0-6.646-2.981-6.646-6.646v-23.445c0-3.665 2.981-6.646 6.646-6.646h23.446c3.664 0 6.645 2.981 6.645 6.646v23.445c0 3.665-2.981 6.646-6.645 6.646zm-23.446-33.16c-1.692 0-3.068 1.376-3.068 3.068v23.445c0 1.692 1.376 3.068 3.068 3.068h23.446c1.69 0 3.066-1.376 3.066-3.068v-23.445c0-1.692-1.376-3.068-3.066-3.068z"
     fill="#24202b"
     id="path80" />
  <path
     d="m194.058 201.814h-33.159c-.988 0-1.789-.801-1.789-1.789s.801-1.789 1.789-1.789h33.159c.988 0 1.789.801 1.789 1.789s-.801 1.789-1.789 1.789z"
     fill="#24202b"
     id="path82" />
  <path
     d="m177.473 218.395c-.988 0-1.789-.801-1.789-1.789v-33.16c0-.988.801-1.789 1.789-1.789s1.789.801 1.789 1.789v33.16c0 .988-.801 1.789-1.789 1.789z"
     fill="#24202b"
     id="path84" />
  <path
     d="m33.965 234.448v-69.493c0-5.106-4.134-9.243-9.239-9.243s-9.248 4.137-9.248 9.243v69.493z"
     fill="#fa759e"
     id="path86" />
  <path
     d="m27.521 156.189c-.885-.284-1.816-.478-2.796-.478-5.105 0-9.248 4.137-9.248 9.243v69.493h5.61v-69.493c.001-4.121 2.713-7.572 6.434-8.765z"
     fill="#dd5e8c"
     id="path88" />
  <path
     d="m67.257 234.448v-69.493c0-5.106-4.135-9.243-9.24-9.243s-9.247 4.137-9.247 9.243v69.493z"
     fill="#fa759e"
     id="path90" />
  <path
     d="m61.04 156.259c-.947-.331-1.96-.547-3.023-.547-5.105 0-9.247 4.137-9.247 9.243v69.493h6.054v-69.493c-.001-4.04 2.61-7.437 6.216-8.696z"
     fill="#dd5e8c"
     id="path92" />
  <path
     d="m100.547 234.448v-69.493c0-5.106-4.133-9.243-9.238-9.243-5.107 0-9.248 4.137-9.248 9.243v69.493z"
     fill="#fa759e"
     id="path94" />
  <path
     d="m94.999 156.488c-1.134-.493-2.379-.776-3.69-.776-5.107 0-9.248 4.137-9.248 9.243v69.493h7.382v-69.493c-.001-3.792 2.284-7.04 5.556-8.467z"
     fill="#dd5e8c"
     id="path96" />
  <path
     d="m33.965 236.237h-18.487c-.988 0-1.789-.801-1.789-1.789v-69.493c0-6.083 4.951-11.032 11.037-11.032 6.081 0 11.028 4.949 11.028 11.032v69.493c0 .988-.801 1.789-1.789 1.789zm-16.698-3.578h14.909v-67.704c0-4.11-3.342-7.454-7.45-7.454-4.113 0-7.459 3.344-7.459 7.454z"
     fill="#24202b"
     id="path98" />
  <path
     d="m67.257 236.237h-18.487c-.988 0-1.789-.801-1.789-1.789v-69.493c0-6.083 4.951-11.032 11.036-11.032 6.081 0 11.029 4.949 11.029 11.032v69.493c0 .988-.801 1.789-1.789 1.789zm-16.698-3.578h14.909v-67.704c0-4.11-3.343-7.454-7.451-7.454-4.112 0-7.458 3.344-7.458 7.454z"
     fill="#24202b"
     id="path100" />
  <path
     d="m100.547 236.237h-18.486c-.988 0-1.789-.801-1.789-1.789v-69.493c0-6.083 4.951-11.032 11.037-11.032 6.08 0 11.027 4.949 11.027 11.032v69.493c0 .988-.801 1.789-1.789 1.789zm-16.697-3.578h14.908v-67.704c0-4.11-3.342-7.454-7.449-7.454-4.113 0-7.459 3.344-7.459 7.454z"
     fill="#24202b"
     id="path102" />
  <path
     d="m106.089 180.804c0 3.874-3.141 7.009-7.009 7.009h-85.272c-3.879 0-7.012-3.136-7.012-7.009 0-3.87 3.133-7.01 7.012-7.01h85.272c3.868 0 7.009 3.14 7.009 7.01z"
     fill="#fa759e"
     id="path104" />
  <path
     d="m99.08 183.151h-85.272c-3.055 0-5.619-1.958-6.584-4.678-.263.735-.428 1.512-.428 2.331 0 3.874 3.133 7.009 7.012 7.009h85.272c3.868 0 7.009-3.136 7.009-7.009 0-.82-.172-1.597-.428-2.331-.964 2.719-3.535 4.678-6.581 4.678z"
     fill="#dd5e8c"
     id="path106" />
  <path
     d="m106.089 213.151c0 3.87-3.141 7.009-7.009 7.009h-85.272c-3.879 0-7.012-3.139-7.012-7.009 0-3.874 3.133-7.01 7.012-7.01h85.272c3.868.001 7.009 3.136 7.009 7.01z"
     fill="#fa759e"
     id="path108" />
  <path
     d="m99.08 215.521h-85.272c-3.055 0-5.628-1.965-6.59-4.69-.257.73-.422 1.5-.422 2.32 0 3.87 3.133 7.009 7.012 7.009h85.272c3.868 0 7.009-3.139 7.009-7.009 0-.82-.172-1.589-.428-2.32-.956 2.725-3.528 4.69-6.581 4.69z"
     fill="#dd5e8c"
     id="path110" />
  <path
     d="m99.08 189.603h-85.272c-4.853 0-8.801-3.947-8.801-8.798s3.948-8.799 8.801-8.799h85.272c4.852 0 8.798 3.947 8.798 8.799s-3.946 8.798-8.798 8.798zm-85.272-14.02c-2.88 0-5.223 2.342-5.223 5.221 0 2.878 2.343 5.22 5.223 5.22h85.272c2.878 0 5.22-2.342 5.22-5.22 0-2.879-2.342-5.221-5.22-5.221z"
     fill="#24202b"
     id="path112" />
  <path
     d="m99.08 221.95h-85.272c-4.853 0-8.801-3.947-8.801-8.798s3.948-8.799 8.801-8.799h85.272c4.852 0 8.798 3.947 8.798 8.799s-3.946 8.798-8.798 8.798zm-85.272-14.019c-2.88 0-5.223 2.342-5.223 5.221 0 2.878 2.343 5.22 5.223 5.22h85.272c2.878 0 5.22-2.342 5.22-5.22 0-2.879-2.342-5.221-5.22-5.221z"
     fill="#24202b"
     id="path114" />
  <g
     id="g4699"
     transform="matrix(0.24773572,0,0,0.24773572,295.8785,-8.8807663)">
    <path
       id="path4631"
       d="m -294.81978,131.66352 h -95.98175 l -67.87202,67.86942 v 95.98175 l 67.87202,67.87202 h 95.98175 l 67.86942,-67.87202 v -95.98175 z m 0,0"
       inkscape:connector-curvature="0"
       style="fill:#ffffff;stroke-width:0.66556495" />
    <path
       id="path4633"
       d="m -294.81978,367.92867 h -95.98175 c -1.20633,0 -2.36068,-0.47837 -3.21343,-1.33113 l -67.86942,-67.86942 c -0.85276,-0.85276 -1.33113,-2.0071 -1.33113,-3.21343 v -95.98175 c 0,-1.20633 0.47837,-2.36067 1.33113,-3.21342 l 67.86942,-67.86943 c 0.85275,-0.85276 2.0097,-1.33113 3.21343,-1.33113 h 95.98175 c 1.20633,0 2.36067,0.47837 3.21342,1.33113 l 67.86943,67.86943 c 0.85276,0.85275 1.33113,2.00969 1.33113,3.21342 v 95.98175 c 0,1.20633 -0.47837,2.36067 -1.33113,3.21343 l -67.86943,67.86942 c -0.85275,0.85276 -2.00709,1.33113 -3.21342,1.33113 z m -94.10205,-9.08652 h 92.22234 l 65.20716,-65.20716 v -92.22234 l -65.20716,-65.20717 h -92.22234 l -65.20716,65.20717 v 92.22234 z m 0,0"
       inkscape:connector-curvature="0"
       style="fill:#54596e;stroke-width:0.66556495" />
    <path
       id="path4635"
       d="m -302.34899,149.83656 h -80.92594 l -57.22298,57.22559 v 80.92593 l 57.22298,57.22299 h 80.92594 l 57.22558,-57.22299 v -80.92593 z m 0,0"
       inkscape:connector-curvature="0"
       style="fill:#ff9999;stroke-width:0.66556495" />
    <path
       id="path4637"
       d="m -302.34639,349.75563 h -80.92854 c -1.20633,0 -2.36067,-0.48097 -3.21342,-1.33113 l -57.22299,-57.22299 c -0.85016,-0.85275 -1.33113,-2.00969 -1.33113,-3.21343 v -80.92853 c 0,-1.20374 0.48097,-2.36068 1.33113,-3.21083 l 57.22299,-57.22299 c 0.85275,-0.85275 2.00969,-1.33113 3.21342,-1.33113 h 80.92854 c 1.20374,0 2.36068,0.47838 3.21083,1.33113 l 57.22559,57.22299 c 0.85015,0.85015 1.33113,2.00709 1.33113,3.21083 v 80.92853 c 0,1.20634 -0.48098,2.36068 -1.33113,3.21343 l -57.22559,57.22299 c -0.85015,0.85016 -2.00709,1.33113 -3.21083,1.33113 z m -79.04623,-9.08912 h 77.16393 l 54.56072,-54.55812 v -77.16654 l -54.56072,-54.56073 h -77.16393 l -54.56073,54.56073 v 77.16654 z m 0,0"
       inkscape:connector-curvature="0"
       style="fill:#54596e;stroke-width:0.66556495" />
    <path
       id="path4643"
       d="m -376.88706,208.90285 c 4.34957,0 9.08652,4.73695 9.08652,9.08912 v 9.08652 l 36.34868,4.54196 v -31.80412 c 0,-5.07493 4.01159,-9.08652 9.08653,-9.08652 5.07493,0 9.08912,4.01159 9.08912,9.08652 v 54.52433 l 13.99506,-2.15009 c 7.82558,-2.35028 16.07495,2.09029 18.42522,9.91588 0.56938,1.8927 -0.50696,3.89199 -2.39966,4.45876 l -5.27513,2.95085 c -13.99506,4.20397 -17.73886,6.71544 -22.14043,18.966 l -5.95369,29.46684 h -53.21139 l -4.54457,-25.46046 c -4.73435,-3.06263 -11.59278,-9.3725 -11.59278,-15.43018 v -59.06629 c 0,-4.35217 4.73695,-9.08912 9.08652,-9.08912 z m 0,0"
       inkscape:connector-curvature="0"
       style="fill:#ffd578;stroke-width:0.66556495" />
    <path
       id="path4645"
       d="m -316.62224,322.49346 h -53.21399 c -2.20209,0 -4.08699,-1.57811 -4.47437,-3.7464 l -4.20918,-23.59636 c -3.91279,-2.84945 -11.99836,-9.74688 -11.99836,-18.09244 v -59.06629 c 0,-6.88184 6.74924,-13.63108 13.63108,-13.63108 6.87924,0 13.63108,6.74924 13.63108,13.63108 v 5.07494 l 27.25956,3.40841 v -26.65899 c 0,-7.6436 5.98749,-13.63108 13.63109,-13.63108 7.64359,0 13.63108,5.98748 13.63108,13.63108 v 49.231 l 8.46775,-1.30253 c 4.85394,-1.37012 9.95487,-0.80596 14.40324,1.58592 4.54976,2.44647 7.87239,6.52046 9.35951,11.46799 0.62397,2.07989 0.40038,4.27678 -0.62917,6.18768 -0.93335,1.73411 -2.43347,3.04704 -4.25598,3.7412 l -4.92934,2.75586 c -0.28858,0.15859 -0.59276,0.29118 -0.90994,0.38218 -13.16831,3.95699 -15.40679,5.77169 -19.057,15.84097 l -5.88609,29.13926 c -0.42378,2.12408 -2.28788,3.64761 -4.45097,3.6476 z m -49.4104,-9.08652 h 45.6926 l 5.21532,-25.82444 c 0.0416,-0.21578 0.1014,-0.43157 0.1768,-0.63696 4.92934,-13.71948 9.98867,-17.19809 24.62849,-21.63346 l 4.83575,-2.70386 c -0.88655,-2.25668 -2.52447,-4.11298 -4.68495,-5.27512 -2.40747,-1.29993 -5.18153,-1.57812 -7.80479,-0.79036 -0.20279,0.0624 -0.40818,0.10919 -0.61877,0.14039 l -13.99246,2.14749 c -1.31553,0.20799 -2.64406,-0.17939 -3.65021,-1.04254 -1.00614,-0.86316 -1.58592,-2.12409 -1.58592,-3.44742 v -54.52433 c 0,-2.54786 -1.99669,-4.54456 -4.54455,-4.54456 -2.54527,0 -4.54196,1.9967 -4.54196,4.54456 v 31.80412 c 0,1.30253 -0.55898,2.54527 -1.53912,3.40583 -0.97235,0.86315 -2.26969,1.27653 -3.56961,1.10234 l -36.34869,-4.54196 c -2.27488,-0.28339 -3.98039,-2.21769 -3.98039,-4.50817 v -9.08652 c 0,-1.8277 -2.71946,-4.54456 -4.54456,-4.54456 -1.8251,0 -4.54196,2.71686 -4.54196,4.54456 v 59.06629 c 0,3.41622 4.83834,8.58995 9.51809,11.61359 1.05815,0.68636 1.78091,1.77571 2.0045,3.01584 z m 0,0"
       inkscape:connector-curvature="0"
       style="fill:#54596e;stroke-width:0.66556495" />
    <path
       id="path4647"
       d="m -349.6249,240.70958 v -54.52433 c 0,-5.07493 5.6105,-9.08652 10.68544,-9.08652 h -1.59892 c 5.07494,0 9.08652,4.01159 9.08652,9.08652 v 54.52433"
       inkscape:connector-curvature="0"
       style="fill:#ffd578;stroke-width:0.66556495" />
    <path
       id="path4649"
       d="m -331.45186,245.25154 c -2.50887,0 -4.54456,-2.0331 -4.54456,-4.54196 v -54.52433 c 0,-2.28788 -1.60411,-4.12858 -3.7776,-4.47957 -2.67266,0.38478 -5.30892,2.51927 -5.30892,4.47957 v 54.52433 c 0,2.50886 -2.03309,4.54196 -4.54196,4.54196 -2.51147,0 -4.54456,-2.0331 -4.54456,-4.54196 v -54.52433 c 0,-6.73365 5.63911,-11.75658 11.70718,-13.20471 0.58237,-0.27298 1.23494,-0.42637 1.9239,-0.42637 h 1.59892 c 0.71756,0 1.39352,0.16639 1.99669,0.46277 5.84449,1.53912 10.03548,6.77524 10.03548,13.16831 v 54.52433 c 0,2.50886 -2.0357,4.54196 -4.54457,4.54196 z m 0,0"
       inkscape:connector-curvature="0"
       style="fill:#54596e;stroke-width:0.66556495" />
    <path
       id="path4651"
       d="m -367.80054,240.70958 v -45.43781 c 0,-4.19098 4.01159,-9.08652 9.08652,-9.08652 l 1.44292,0.43937 c 5.07493,0 7.6462,4.45617 7.6462,8.64715 v 45.43781"
       inkscape:connector-curvature="0"
       style="fill:#ffd578;stroke-width:0.66556495" />
    <path
       id="path4653"
       d="m -349.6249,245.25154 c -2.51147,0 -4.54456,-2.0331 -4.54456,-4.54196 v -45.43781 c 0,-0.16639 -0.0364,-4.10258 -3.10164,-4.10258 -0.44717,0 -0.89435,-0.0676 -1.32333,-0.19759 l -0.65256,-0.19759 c -2.22549,0.35878 -4.00899,2.87544 -4.00899,4.49776 v 45.43781 c 0,2.50886 -2.0357,4.54196 -4.54456,4.54196 -2.50887,0 -4.54456,-2.0331 -4.54456,-4.54196 v -45.43781 c 0,-6.43206 5.83149,-13.62848 13.63108,-13.62848 0.44978,0 0.89436,0.065 1.32593,0.19759 l 0.86055,0.25998 c 7.44081,0.41338 11.4446,6.98063 11.4446,13.17091 v 45.43781 c 0,2.50886 -2.03309,4.54196 -4.54196,4.54196 z m 0,0"
       inkscape:connector-curvature="0"
       style="fill:#54596e;stroke-width:0.66556495" />
  </g>
  <text
     xml:space="preserve"
     style="font-style:normal;font-variant:normal;font-weight:bold;font-stretch:normal;font-size:23.56866646px;line-height:1.25;font-family:Candara;-inkscape-font-specification:'Candara, Bold';font-variant-ligatures:normal;font-variant-caps:normal;font-variant-numeric:normal;font-feature-settings:normal;text-align:start;letter-spacing:0px;word-spacing:0px;writing-mode:lr-tb;text-anchor:start;fill:#ff5555;fill-opacity:1;stroke:none;stroke-width:1.26262462"
     x="13.646688"
     y="26.879519"
     id="text4703"><tspan
       sodipodi:role="line"
       id="tspan4701"
       x="13.646688"
       y="26.879519"
       style="font-style:normal;font-variant:normal;font-weight:bold;font-stretch:normal;font-size:23.56866646px;font-family:Candara;-inkscape-font-specification:'Candara, Bold';font-variant-ligatures:normal;font-variant-caps:normal;font-variant-numeric:normal;font-feature-settings:normal;text-align:start;writing-mode:lr-tb;text-anchor:start;fill:#ff5555;stroke-width:1.26262462">Tidak Diizinkan</tspan></text>
</svg>
